<svg width="23" height="15" viewBox="0 0 23 15" fill="none" xmlns="http://www.w3.org/2000/svg">
<path fill-rule="evenodd" clip-rule="evenodd" d="M16.2453 0.298304L22.7028 6.77983C23.0991 7.17757 23.0991 7.82243 22.7028 8.22017L16.2452 14.7017C15.849 15.0994 15.2065 15.0994 14.8102 14.7017C14.414 14.304 14.414 13.6591 14.8102 13.2614L19.5356 8.51847L1.01471 8.51847C0.454299 8.51847 -8.06416e-08 8.06249 0 7.5C8.06416e-08 6.93751 0.454299 6.48153 1.01471 6.48153L19.5356 6.48153L14.8102 1.73864C14.414 1.3409 14.414 0.696042 14.8102 0.298304C15.2065 -0.0994347 15.849 -0.0994347 16.2453 0.298304Z" fill="#7A7363"/>
</svg>
