<svg width="30" height="30" viewBox="0 0 30 30" fill="none" xmlns="http://www.w3.org/2000/svg">
<path d="M22.0771 0H7.9229C3.48 0 0 3.48 0 7.9229V22.0771C0 26.52 3.48 30 7.9229 30H22.0771C26.52 30 30 26.52 30 22.0771V7.9229C30 3.48 26.519 0 22.0771 0ZM28.0645 22.0771C28.0645 25.4352 25.4342 28.0645 22.0771 28.0645H7.9229C4.56581 28.0645 1.93548 25.4342 1.93548 22.0771V7.9229C1.93548 4.56581 4.56581 1.93548 7.9229 1.93548H22.0771C25.4352 1.93548 28.0645 4.56581 28.0645 7.9229V22.0771Z" fill="white"/>
<path fill-rule="evenodd" clip-rule="evenodd" d="M16.125 7.59759C15.449 7.73619 15.149 7.88329 14.697 8.29802C14.0083 8.92981 13.7847 9.59456 13.7348 11.1579L13.6922 12.4906H12.4711H11.25V13.7418V14.993H12.4821H13.7143V18.7465V22.5H14.9464H16.1786V18.7465V14.993H17.285H18.3915L18.5235 13.9322C18.5961 13.3488 18.68 12.7858 18.71 12.681C18.7597 12.5072 18.6522 12.4906 17.4715 12.4906H16.1786V11.6692C16.1786 10.2778 16.4858 9.9883 17.9624 9.9883H18.75V8.80698V7.62577L18.0914 7.55581C17.2819 7.46997 16.6863 7.48259 16.125 7.59759Z" fill="white"/>
</svg>
