<svg width="206" height="47" viewBox="0 0 206 47" fill="none" xmlns="http://www.w3.org/2000/svg">
<path d="M92.064 40L92.048 31.84L88 38.64H87.264L83.216 31.888V40H81.68V28.8H82.992L87.664 36.672L92.272 28.8H93.584L93.6 40H92.064ZM100.529 40.096C99.6866 40.096 98.9293 39.9093 98.2573 39.536C97.5852 39.1627 97.0572 38.6507 96.6732 38C96.2999 37.3387 96.1132 36.592 96.1132 35.76C96.1132 34.928 96.2999 34.1867 96.6732 33.536C97.0572 32.8747 97.5852 32.3627 98.2573 32C98.9293 31.6267 99.6866 31.44 100.529 31.44C101.372 31.44 102.124 31.6267 102.785 32C103.457 32.3627 103.98 32.8747 104.353 33.536C104.737 34.1867 104.929 34.928 104.929 35.76C104.929 36.592 104.737 37.3387 104.353 38C103.98 38.6507 103.457 39.1627 102.785 39.536C102.124 39.9093 101.372 40.096 100.529 40.096ZM100.529 38.752C101.073 38.752 101.559 38.6293 101.985 38.384C102.423 38.128 102.764 37.776 103.009 37.328C103.255 36.8693 103.377 36.3467 103.377 35.76C103.377 35.1733 103.255 34.656 103.009 34.208C102.764 33.7493 102.423 33.3973 101.985 33.152C101.559 32.9067 101.073 32.784 100.529 32.784C99.9853 32.784 99.4946 32.9067 99.0573 33.152C98.6306 33.3973 98.2892 33.7493 98.0332 34.208C97.7879 34.656 97.6653 35.1733 97.6653 35.76C97.6653 36.3467 97.7879 36.8693 98.0332 37.328C98.2892 37.776 98.6306 38.128 99.0573 38.384C99.4946 38.6293 99.9853 38.752 100.529 38.752ZM111.982 39.504C111.758 39.696 111.48 39.8453 111.149 39.952C110.819 40.048 110.477 40.096 110.125 40.096C109.272 40.096 108.611 39.8667 108.141 39.408C107.672 38.9493 107.437 38.2933 107.437 37.44V32.784H105.997V31.52H107.437V29.664H108.973V31.52H111.405V32.784H108.973V37.376C108.973 37.8347 109.085 38.1867 109.309 38.432C109.544 38.6773 109.875 38.8 110.301 38.8C110.771 38.8 111.171 38.6667 111.502 38.4L111.982 39.504ZM117.349 40.096C116.507 40.096 115.749 39.9093 115.077 39.536C114.405 39.1627 113.877 38.6507 113.493 38C113.12 37.3387 112.933 36.592 112.933 35.76C112.933 34.928 113.12 34.1867 113.493 33.536C113.877 32.8747 114.405 32.3627 115.077 32C115.749 31.6267 116.507 31.44 117.349 31.44C118.192 31.44 118.944 31.6267 119.605 32C120.277 32.3627 120.8 32.8747 121.173 33.536C121.557 34.1867 121.749 34.928 121.749 35.76C121.749 36.592 121.557 37.3387 121.173 38C120.8 38.6507 120.277 39.1627 119.605 39.536C118.944 39.9093 118.192 40.096 117.349 40.096ZM117.349 38.752C117.893 38.752 118.379 38.6293 118.805 38.384C119.243 38.128 119.584 37.776 119.829 37.328C120.075 36.8693 120.197 36.3467 120.197 35.76C120.197 35.1733 120.075 34.656 119.829 34.208C119.584 33.7493 119.243 33.3973 118.805 33.152C118.379 32.9067 117.893 32.784 117.349 32.784C116.805 32.784 116.315 32.9067 115.877 33.152C115.451 33.3973 115.109 33.7493 114.853 34.208C114.608 34.656 114.485 35.1733 114.485 35.76C114.485 36.3467 114.608 36.8693 114.853 37.328C115.109 37.776 115.451 38.128 115.877 38.384C116.315 38.6293 116.805 38.752 117.349 38.752ZM125.505 32.944C125.772 32.4533 126.167 32.08 126.689 31.824C127.212 31.568 127.847 31.44 128.593 31.44V32.928C128.508 32.9173 128.391 32.912 128.241 32.912C127.409 32.912 126.753 33.1627 126.273 33.664C125.804 34.1547 125.569 34.8587 125.569 35.776V40H124.033V31.52H125.505V32.944ZM133.141 40.096C132.448 40.096 131.781 40.0053 131.141 39.824C130.501 39.632 130 39.392 129.637 39.104L130.277 37.888C130.65 38.1547 131.104 38.368 131.637 38.528C132.17 38.688 132.709 38.768 133.253 38.768C134.597 38.768 135.269 38.384 135.269 37.616C135.269 37.36 135.178 37.1573 134.997 37.008C134.816 36.8587 134.586 36.752 134.309 36.688C134.042 36.6133 133.658 36.5333 133.157 36.448C132.474 36.3413 131.914 36.2187 131.477 36.08C131.05 35.9413 130.682 35.7067 130.373 35.376C130.064 35.0453 129.909 34.5813 129.909 33.984C129.909 33.216 130.229 32.6027 130.869 32.144C131.509 31.6747 132.368 31.44 133.445 31.44C134.01 31.44 134.576 31.5093 135.141 31.648C135.706 31.7867 136.17 31.9733 136.533 32.208L135.877 33.424C135.184 32.976 134.368 32.752 133.429 32.752C132.778 32.752 132.282 32.8587 131.941 33.072C131.6 33.2853 131.429 33.568 131.429 33.92C131.429 34.1973 131.525 34.416 131.717 34.576C131.909 34.736 132.144 34.8533 132.421 34.928C132.709 35.0027 133.109 35.088 133.621 35.184C134.304 35.3013 134.853 35.4293 135.269 35.568C135.696 35.696 136.058 35.92 136.357 36.24C136.656 36.56 136.805 37.008 136.805 37.584C136.805 38.352 136.474 38.9653 135.813 39.424C135.162 39.872 134.272 40.096 133.141 40.096ZM151.054 40L148.638 36.56C148.339 36.5813 148.104 36.592 147.934 36.592H145.166V40H143.566V28.8H147.934C149.384 28.8 150.526 29.1467 151.358 29.84C152.19 30.5333 152.606 31.488 152.606 32.704C152.606 33.568 152.392 34.304 151.966 34.912C151.539 35.52 150.931 35.9627 150.142 36.24L152.798 40H151.054ZM147.886 35.232C148.899 35.232 149.672 35.0133 150.206 34.576C150.739 34.1387 151.006 33.5147 151.006 32.704C151.006 31.8933 150.739 31.2747 150.206 30.848C149.672 30.4107 148.899 30.192 147.886 30.192H145.166V35.232H147.886ZM162.791 35.808C162.791 35.9253 162.78 36.08 162.759 36.272H155.879C155.975 37.0187 156.3 37.6213 156.855 38.08C157.42 38.528 158.119 38.752 158.951 38.752C159.964 38.752 160.78 38.4107 161.399 37.728L162.247 38.72C161.863 39.168 161.383 39.5093 160.807 39.744C160.241 39.9787 159.607 40.096 158.903 40.096C158.007 40.096 157.212 39.9147 156.519 39.552C155.825 39.1787 155.287 38.6613 154.903 38C154.529 37.3387 154.343 36.592 154.343 35.76C154.343 34.9387 154.524 34.1973 154.887 33.536C155.26 32.8747 155.767 32.3627 156.407 32C157.057 31.6267 157.788 31.44 158.599 31.44C159.409 31.44 160.129 31.6267 160.759 32C161.399 32.3627 161.895 32.8747 162.247 33.536C162.609 34.1973 162.791 34.9547 162.791 35.808ZM158.599 32.736C157.863 32.736 157.244 32.96 156.743 33.408C156.252 33.856 155.964 34.4427 155.879 35.168H161.319C161.233 34.4533 160.94 33.872 160.439 33.424C159.948 32.9653 159.335 32.736 158.599 32.736ZM169.612 31.44C170.689 31.44 171.542 31.7547 172.172 32.384C172.812 33.0027 173.132 33.9147 173.132 35.12V40H171.596V35.296C171.596 34.4747 171.398 33.856 171.004 33.44C170.609 33.024 170.044 32.816 169.308 32.816C168.476 32.816 167.82 33.0613 167.34 33.552C166.86 34.032 166.62 34.7253 166.62 35.632V40H165.084V31.52H166.556V32.8C166.865 32.3627 167.281 32.0267 167.804 31.792C168.337 31.5573 168.94 31.44 169.612 31.44ZM180.902 39.504C180.678 39.696 180.401 39.8453 180.07 39.952C179.739 40.048 179.398 40.096 179.046 40.096C178.193 40.096 177.531 39.8667 177.062 39.408C176.593 38.9493 176.358 38.2933 176.358 37.44V32.784H174.918V31.52H176.358V29.664H177.894V31.52H180.326V32.784H177.894V37.376C177.894 37.8347 178.006 38.1867 178.23 38.432C178.465 38.6773 178.795 38.8 179.222 38.8C179.691 38.8 180.091 38.6667 180.422 38.4L180.902 39.504ZM186.007 31.44C187.18 31.44 188.076 31.728 188.695 32.304C189.324 32.88 189.639 33.7387 189.639 34.88V40H188.183V38.88C187.927 39.2747 187.559 39.5787 187.079 39.792C186.61 39.9947 186.05 40.096 185.399 40.096C184.45 40.096 183.687 39.8667 183.111 39.408C182.546 38.9493 182.263 38.3467 182.263 37.6C182.263 36.8533 182.535 36.256 183.079 35.808C183.623 35.3493 184.487 35.12 185.671 35.12H188.103V34.816C188.103 34.1547 187.911 33.648 187.527 33.296C187.143 32.944 186.578 32.768 185.831 32.768C185.33 32.768 184.839 32.8533 184.359 33.024C183.879 33.184 183.474 33.4027 183.143 33.68L182.503 32.528C182.94 32.176 183.463 31.9093 184.071 31.728C184.679 31.536 185.324 31.44 186.007 31.44ZM185.655 38.912C186.242 38.912 186.748 38.784 187.175 38.528C187.602 38.2613 187.911 37.888 188.103 37.408V36.224H185.735C184.434 36.224 183.783 36.6613 183.783 37.536C183.783 37.9627 183.948 38.2987 184.279 38.544C184.61 38.7893 185.068 38.912 185.655 38.912ZM192.642 28.128H194.178V40H192.642V28.128ZM199.702 40.096C199.009 40.096 198.342 40.0053 197.702 39.824C197.062 39.632 196.561 39.392 196.198 39.104L196.838 37.888C197.212 38.1547 197.665 38.368 198.198 38.528C198.732 38.688 199.27 38.768 199.814 38.768C201.158 38.768 201.83 38.384 201.83 37.616C201.83 37.36 201.74 37.1573 201.558 37.008C201.377 36.8587 201.148 36.752 200.87 36.688C200.604 36.6133 200.22 36.5333 199.718 36.448C199.036 36.3413 198.476 36.2187 198.038 36.08C197.612 35.9413 197.244 35.7067 196.934 35.376C196.625 35.0453 196.47 34.5813 196.47 33.984C196.47 33.216 196.79 32.6027 197.43 32.144C198.07 31.6747 198.929 31.44 200.006 31.44C200.572 31.44 201.137 31.5093 201.702 31.648C202.268 31.7867 202.732 31.9733 203.094 32.208L202.438 33.424C201.745 32.976 200.929 32.752 199.99 32.752C199.34 32.752 198.844 32.8587 198.502 33.072C198.161 33.2853 197.99 33.568 197.99 33.92C197.99 34.1973 198.086 34.416 198.278 34.576C198.47 34.736 198.705 34.8533 198.982 34.928C199.27 35.0027 199.67 35.088 200.182 35.184C200.865 35.3013 201.414 35.4293 201.83 35.568C202.257 35.696 202.62 35.92 202.918 36.24C203.217 36.56 203.366 37.008 203.366 37.584C203.366 38.352 203.036 38.9653 202.374 39.424C201.724 39.872 200.833 40.096 199.702 40.096Z" fill="#7A7363"/>
<path d="M86.573 21.252C85.411 21.252 84.284 21.098 83.192 20.79C82.114 20.468 81.246 20.055 80.588 19.551L81.743 16.989C82.373 17.451 83.122 17.822 83.99 18.102C84.858 18.382 85.726 18.522 86.594 18.522C87.56 18.522 88.274 18.382 88.736 18.102C89.198 17.808 89.429 17.423 89.429 16.947C89.429 16.597 89.289 16.31 89.009 16.086C88.743 15.848 88.393 15.659 87.959 15.519C87.539 15.379 86.965 15.225 86.237 15.057C85.117 14.791 84.2 14.525 83.486 14.259C82.772 13.993 82.156 13.566 81.638 12.978C81.134 12.39 80.882 11.606 80.882 10.626C80.882 9.772 81.113 9.002 81.575 8.316C82.037 7.616 82.73 7.063 83.654 6.657C84.592 6.251 85.733 6.048 87.077 6.048C88.015 6.048 88.932 6.16 89.828 6.384C90.724 6.608 91.508 6.93 92.18 7.35L91.13 9.933C89.772 9.163 88.414 8.778 87.056 8.778C86.104 8.778 85.397 8.932 84.935 9.24C84.487 9.548 84.263 9.954 84.263 10.458C84.263 10.962 84.522 11.34 85.04 11.592C85.572 11.83 86.377 12.068 87.455 12.306C88.575 12.572 89.492 12.838 90.206 13.104C90.92 13.37 91.529 13.79 92.033 14.364C92.551 14.938 92.81 15.715 92.81 16.695C92.81 17.535 92.572 18.305 92.096 19.005C91.634 19.691 90.934 20.237 89.996 20.643C89.058 21.049 87.917 21.252 86.573 21.252ZM104.127 9.072H99.4229V6.3H112.233V9.072H107.529V21H104.127V9.072ZM124.841 21.252C123.679 21.252 122.552 21.098 121.46 20.79C120.382 20.468 119.514 20.055 118.856 19.551L120.011 16.989C120.641 17.451 121.39 17.822 122.258 18.102C123.126 18.382 123.994 18.522 124.862 18.522C125.828 18.522 126.542 18.382 127.004 18.102C127.466 17.808 127.697 17.423 127.697 16.947C127.697 16.597 127.557 16.31 127.277 16.086C127.011 15.848 126.661 15.659 126.227 15.519C125.807 15.379 125.233 15.225 124.505 15.057C123.385 14.791 122.468 14.525 121.754 14.259C121.04 13.993 120.424 13.566 119.906 12.978C119.402 12.39 119.15 11.606 119.15 10.626C119.15 9.772 119.381 9.002 119.843 8.316C120.305 7.616 120.998 7.063 121.922 6.657C122.86 6.251 124.001 6.048 125.345 6.048C126.283 6.048 127.2 6.16 128.096 6.384C128.992 6.608 129.776 6.93 130.448 7.35L129.398 9.933C128.04 9.163 126.682 8.778 125.324 8.778C124.372 8.778 123.665 8.932 123.203 9.24C122.755 9.548 122.531 9.954 122.531 10.458C122.531 10.962 122.79 11.34 123.308 11.592C123.84 11.83 124.645 12.068 125.723 12.306C126.843 12.572 127.76 12.838 128.474 13.104C129.188 13.37 129.797 13.79 130.301 14.364C130.819 14.938 131.078 15.715 131.078 16.695C131.078 17.535 130.84 18.305 130.364 19.005C129.902 19.691 129.202 20.237 128.264 20.643C127.326 21.049 126.185 21.252 124.841 21.252ZM138.547 21.168C137.357 21.168 136.286 20.923 135.334 20.433C134.396 19.929 133.661 19.236 133.129 18.354C132.597 17.472 132.331 16.471 132.331 15.351C132.331 14.231 132.597 13.23 133.129 12.348C133.661 11.466 134.396 10.78 135.334 10.29C136.286 9.786 137.357 9.534 138.547 9.534C139.737 9.534 140.801 9.786 141.739 10.29C142.677 10.78 143.412 11.466 143.944 12.348C144.476 13.23 144.742 14.231 144.742 15.351C144.742 16.471 144.476 17.472 143.944 18.354C143.412 19.236 142.677 19.929 141.739 20.433C140.801 20.923 139.737 21.168 138.547 21.168ZM138.547 18.48C139.387 18.48 140.073 18.2 140.605 17.64C141.151 17.066 141.424 16.303 141.424 15.351C141.424 14.399 141.151 13.643 140.605 13.083C140.073 12.509 139.387 12.222 138.547 12.222C137.707 12.222 137.014 12.509 136.468 13.083C135.922 13.643 135.649 14.399 135.649 15.351C135.649 16.303 135.922 17.066 136.468 17.64C137.014 18.2 137.707 18.48 138.547 18.48ZM146.932 5.418H150.208V21H146.932V5.418ZM158.624 21.168C157.434 21.168 156.363 20.923 155.411 20.433C154.473 19.929 153.738 19.236 153.206 18.354C152.674 17.472 152.408 16.471 152.408 15.351C152.408 14.231 152.674 13.23 153.206 12.348C153.738 11.466 154.473 10.78 155.411 10.29C156.363 9.786 157.434 9.534 158.624 9.534C159.814 9.534 160.878 9.786 161.816 10.29C162.754 10.78 163.489 11.466 164.021 12.348C164.553 13.23 164.819 14.231 164.819 15.351C164.819 16.471 164.553 17.472 164.021 18.354C163.489 19.236 162.754 19.929 161.816 20.433C160.878 20.923 159.814 21.168 158.624 21.168ZM158.624 18.48C159.464 18.48 160.15 18.2 160.682 17.64C161.228 17.066 161.501 16.303 161.501 15.351C161.501 14.399 161.228 13.643 160.682 13.083C160.15 12.509 159.464 12.222 158.624 12.222C157.784 12.222 157.091 12.509 156.545 13.083C155.999 13.643 155.726 14.399 155.726 15.351C155.726 16.303 155.999 17.066 156.545 17.64C157.091 18.2 157.784 18.48 158.624 18.48ZM173.876 9.534C175.276 9.534 176.403 9.954 177.257 10.794C178.125 11.634 178.559 12.88 178.559 14.532V21H175.283V15.036C175.283 14.14 175.087 13.475 174.695 13.041C174.303 12.593 173.736 12.369 172.994 12.369C172.168 12.369 171.51 12.628 171.02 13.146C170.53 13.65 170.285 14.406 170.285 15.414V21H167.009V9.702H170.138V11.025C170.572 10.549 171.111 10.185 171.755 9.933C172.399 9.667 173.106 9.534 173.876 9.534ZM187.028 21.168C185.838 21.168 184.767 20.923 183.815 20.433C182.877 19.929 182.142 19.236 181.61 18.354C181.078 17.472 180.812 16.471 180.812 15.351C180.812 14.231 181.078 13.23 181.61 12.348C182.142 11.466 182.877 10.78 183.815 10.29C184.767 9.786 185.838 9.534 187.028 9.534C188.218 9.534 189.282 9.786 190.22 10.29C191.158 10.78 191.893 11.466 192.425 12.348C192.957 13.23 193.223 14.231 193.223 15.351C193.223 16.471 192.957 17.472 192.425 18.354C191.893 19.236 191.158 19.929 190.22 20.433C189.282 20.923 188.218 21.168 187.028 21.168ZM187.028 18.48C187.868 18.48 188.554 18.2 189.086 17.64C189.632 17.066 189.905 16.303 189.905 15.351C189.905 14.399 189.632 13.643 189.086 13.083C188.554 12.509 187.868 12.222 187.028 12.222C186.188 12.222 185.495 12.509 184.949 13.083C184.403 13.643 184.13 14.399 184.13 15.351C184.13 16.303 184.403 17.066 184.949 17.64C185.495 18.2 186.188 18.48 187.028 18.48ZM199.213 21.168C198.275 21.168 197.358 21.056 196.462 20.832C195.566 20.594 194.852 20.3 194.32 19.95L195.412 17.598C195.916 17.92 196.525 18.186 197.239 18.396C197.953 18.592 198.653 18.69 199.339 18.69C200.725 18.69 201.418 18.347 201.418 17.661C201.418 17.339 201.229 17.108 200.851 16.968C200.473 16.828 199.892 16.709 199.108 16.611C198.184 16.471 197.421 16.31 196.819 16.128C196.217 15.946 195.692 15.624 195.244 15.162C194.81 14.7 194.593 14.042 194.593 13.188C194.593 12.474 194.796 11.844 195.202 11.298C195.622 10.738 196.224 10.304 197.008 9.996C197.806 9.688 198.744 9.534 199.822 9.534C200.62 9.534 201.411 9.625 202.195 9.807C202.993 9.975 203.651 10.213 204.169 10.521L203.077 12.852C202.083 12.292 200.998 12.012 199.822 12.012C199.122 12.012 198.597 12.11 198.247 12.306C197.897 12.502 197.722 12.754 197.722 13.062C197.722 13.412 197.911 13.657 198.289 13.797C198.667 13.937 199.269 14.07 200.095 14.196C201.019 14.35 201.775 14.518 202.363 14.7C202.951 14.868 203.462 15.183 203.896 15.645C204.33 16.107 204.547 16.751 204.547 17.577C204.547 18.277 204.337 18.9 203.917 19.446C203.497 19.992 202.881 20.419 202.069 20.727C201.271 21.021 200.319 21.168 199.213 21.168Z" fill="#414141"/>
</svg>
