<svg width="24" height="24" viewBox="0 0 24 24" fill="none" xmlns="http://www.w3.org/2000/svg">
<g clip-path="url(#clip0_68_176)">
<path d="M24.0592 13.3216L24.0596 13.3215M24.0592 13.3216C24.1761 13.6146 24.0334 13.9469 23.7404 14.0637L23.7403 14.0637L20.8296 15.2231V21.8452C20.8296 22.1607 20.5738 22.4164 20.2584 22.4164H0.471126C0.155718 22.4164 -0.1 22.1607 -0.1 21.8452V9.59596V9.59501L-0.0999954 9.59501C-0.0980662 9.39348 0.0108334 9.20889 0.18473 9.10935C0.241946 9.0381 0.315765 8.98176 0.399899 8.94541L0.402551 8.94426L0.402567 8.9443L18.7836 1.62516C18.7855 1.62434 18.7871 1.6237 18.7884 1.62323M24.0592 13.3216C24.0592 13.3217 24.0593 13.3218 24.0593 13.3219L24.0594 13.322C24.0593 13.3219 24.0593 13.3218 24.0592 13.3216ZM24.0596 13.3215L18.823 1.71708M24.0596 13.3215L24.0576 13.3176M24.0596 13.3215L24.0576 13.3176M18.7884 1.62323C18.7904 1.62247 18.7915 1.62217 18.7912 1.62228L18.823 1.71708M18.7884 1.62323C18.7876 1.62354 18.7868 1.62385 18.786 1.62416L18.823 1.71708M18.7884 1.62323C19.0809 1.50836 19.4115 1.65143 19.5278 1.94371M18.823 1.71708C19.0647 1.62091 19.3387 1.73893 19.4349 1.98068M19.5278 1.94371L19.5278 1.94368L19.4349 1.98068M19.5278 1.94371L24.0576 13.3176M19.5278 1.94371L19.4349 1.98068M19.4349 1.98068L24.0576 13.3176M19.3455 6.58051L19.346 6.58029L19.341 6.5707C19.3307 6.55132 19.3191 6.53253 19.3062 6.51451C19.2365 6.25087 18.9874 6.07329 18.7135 6.0957L18.7125 6.09579C17.7959 6.17934 16.8992 5.79321 16.3301 5.06974L16.3292 5.06862C16.1555 4.85421 15.8535 4.7968 15.614 4.92963C15.5945 4.93262 15.5753 4.93653 15.5563 4.94129L15.5561 4.94042L15.5436 4.94538L5.91335 8.78016C5.91328 8.78018 5.91321 8.78021 5.91314 8.78024C5.79293 8.82743 5.69314 8.914 5.62945 9.02484H3.28792L18.678 2.89688L22.7871 13.2149L20.8296 13.9957V9.59596C20.8296 9.30136 20.6065 9.05884 20.32 9.02812L19.3455 6.58051ZM24.0604 13.3249L24.0594 13.3221C24.0603 13.3243 24.0609 13.3262 24.0608 13.326L24.0608 13.326L24.0608 13.3259L24.0607 13.3257L24.0604 13.3249ZM19.6873 21.2741H1.04225V10.1671H19.6873V21.2741ZM8.38185 9.02719L15.7241 6.10154C16.4271 6.8149 17.3807 7.22605 18.3821 7.2476L19.0897 9.02719H8.38185Z" fill="#7A7363" stroke="#7A7363" stroke-width="0.2"/>
<path d="M2.19157 18.2892L2.19256 18.2895C3.07478 18.5503 3.76513 19.2398 4.02698 20.1216L4.02702 20.1218C4.0992 20.3637 4.32173 20.5295 4.57415 20.5296V20.5298L4.58044 20.5294C4.60199 20.528 4.62337 20.5253 4.64448 20.5214C4.66237 20.5256 4.68047 20.5288 4.69868 20.5311L4.69858 20.5319H4.71128H16.0183V20.5328L16.0312 20.5311C16.0468 20.5291 16.0622 20.5263 16.0775 20.5228C16.358 20.5771 16.6345 20.4019 16.7028 20.1213L16.7029 20.1213L16.7032 20.1199C16.9652 19.2388 17.655 18.5498 18.5366 18.289L18.5374 18.2888C18.8002 18.2084 18.9661 17.9512 18.9332 17.6805C18.9381 17.6595 18.9418 17.6383 18.9444 17.6171L18.9451 17.6172V17.6052V13.8362H18.9458L18.9444 13.8245C18.9419 13.8029 18.938 13.7814 18.9328 13.7602C18.9656 13.4896 18.7997 13.2326 18.5369 13.1525L18.5361 13.1523C17.6533 12.8912 16.9631 12.2005 16.7027 11.3175L16.7024 11.3166C16.6217 11.0521 16.3622 10.8859 16.0901 10.9207C16.0704 10.9161 16.0504 10.9126 16.0303 10.9101L16.0304 10.9094H16.0183H4.71128V10.9087L4.69945 10.9101C4.67779 10.9127 4.65624 10.9166 4.63496 10.9217C4.3645 10.8893 4.10771 11.055 4.02724 11.3174L4.02723 11.3174L4.02696 11.3183C3.76562 12.201 3.07521 12.8912 2.19254 13.1523L2.19254 13.1523L2.19168 13.1526C1.92876 13.2329 1.76291 13.4903 1.796 13.7612C1.7912 13.7822 1.78757 13.8035 1.78515 13.825L1.78452 13.8249V13.8362V17.6052H1.78378L1.78526 17.6173C1.78769 17.6371 1.79122 17.6568 1.79584 17.6762C1.76105 17.9484 1.92714 18.2081 2.19157 18.2892ZM2.92677 14.0944C3.84767 13.7055 4.58062 12.9726 4.96951 12.0517H15.7596C16.1487 12.9726 16.8818 13.7055 17.8028 14.0944V17.347C16.8822 17.7362 16.1494 18.4691 15.7601 19.3897H4.96948C4.58022 18.4691 3.84739 17.7362 2.92677 17.347V14.0944Z" fill="#7A7363" stroke="#7A7363" stroke-width="0.2"/>
<path d="M10.3646 18.6474H10.3647C11.9811 18.6474 13.2915 17.3371 13.2915 15.7207C13.2915 14.1043 11.9811 12.7939 10.3647 12.7939C8.7483 12.7939 7.43796 14.1043 7.43796 15.7207L7.43796 15.7208C7.43955 17.3365 8.74893 18.6458 10.3646 18.6474ZM10.3647 13.9362C11.3503 13.9362 12.1492 14.7351 12.1492 15.7207C12.1492 16.7062 11.3503 17.5052 10.3647 17.5052C9.37917 17.5052 8.58022 16.7062 8.58022 15.7207C8.58022 14.7351 9.37917 13.9362 10.3647 13.9362Z" fill="#7A7363" stroke="#7A7363" stroke-width="0.2"/>
<path d="M5.1824 16.5273C5.62789 16.5273 5.98909 16.1661 5.98909 15.7206C5.98909 15.2751 5.62789 14.9139 5.1824 14.9139C4.7369 14.9139 4.37571 15.2751 4.37571 15.7206C4.37571 16.1662 4.73691 16.5273 5.1824 16.5273ZM5.1824 15.585C5.25726 15.585 5.31796 15.6457 5.31796 15.7206C5.31796 15.7955 5.25726 15.8562 5.1824 15.8562C5.10754 15.8562 5.04683 15.7955 5.04683 15.7206C5.04683 15.6457 5.10754 15.585 5.1824 15.585Z" fill="#7A7363" stroke="#7A7363" stroke-width="0.2"/>
<path d="M15.5471 16.5273C15.9926 16.5273 16.3538 16.1661 16.3538 15.7206C16.3538 15.2751 15.9926 14.9139 15.5471 14.9139C15.1016 14.9139 14.7405 15.2751 14.7405 15.7206C14.7405 16.1662 15.1017 16.5273 15.5471 16.5273ZM15.5471 15.585C15.622 15.585 15.6827 15.6457 15.6827 15.7206C15.6827 15.7955 15.622 15.8562 15.5471 15.8562C15.4723 15.8562 15.4116 15.7955 15.4116 15.7206C15.4116 15.6457 15.4723 15.585 15.5471 15.585Z" fill="#7A7363" stroke="#7A7363" stroke-width="0.2"/>
</g>
<defs>
<clipPath id="clip0_68_176">
<rect width="24" height="24" fill="white"/>
</clipPath>
</defs>
</svg>
