<svg width="30" height="30" viewBox="0 0 30 30" fill="none" xmlns="http://www.w3.org/2000/svg">
<path d="M22.0771 0H7.9229C3.48 0 0 3.48 0 7.9229V22.0771C0 26.52 3.48 30 7.9229 30H22.0771C26.52 30 30 26.52 30 22.0771V7.9229C30 3.48 26.519 0 22.0771 0ZM28.0645 22.0771C28.0645 25.4352 25.4342 28.0645 22.0771 28.0645H7.9229C4.56581 28.0645 1.93548 25.4342 1.93548 22.0771V7.9229C1.93548 4.56581 4.56581 1.93548 7.9229 1.93548H22.0771C25.4352 1.93548 28.0645 4.56581 28.0645 7.9229V22.0771Z" fill="white"/>
<path d="M24.4347 7.6596C24.124 7.43218 23.7079 7.41283 23.3759 7.60638C23.045 7.80089 22.3114 7.8967 21.723 7.97412C21.6011 7.99057 21.4811 8.00605 21.365 8.02251C20.5414 7.33928 19.4895 6.95605 18.4047 6.95605C15.9611 6.95605 13.9559 8.84702 13.8137 11.2257C11.5976 10.8522 9.5682 9.6967 8.13014 7.96057C7.91627 7.70122 7.58433 7.57444 7.24949 7.61799C6.91659 7.66444 6.63207 7.88025 6.49756 8.18799C6.43562 8.32928 5.89562 9.65799 5.89562 12.9444C5.89562 15.7906 8.14175 17.8819 9.6824 18.9822C8.62852 19.4612 7.41401 19.6373 6.26046 19.5096C5.80949 19.4612 5.38756 19.7264 5.23852 20.1512C5.08949 20.577 5.25401 21.0493 5.6353 21.2902C7.45465 22.438 9.55756 23.0448 11.7176 23.0448C18.6543 23.0448 22.8524 17.5954 23.0082 12.2225C23.2076 11.9332 23.5879 11.3699 24.2305 10.3819C24.4879 9.98412 24.7037 9.1267 24.8092 8.65154C24.8934 8.27605 24.7453 7.88605 24.4347 7.6596ZM21.2624 11.3428C21.1434 11.5073 21.0785 11.7067 21.0785 11.9099C21.0785 15.7296 18.1743 21.1093 11.7185 21.1093C11.135 21.1093 10.5563 21.0561 9.98917 20.9515C10.7459 20.6651 11.4611 20.2654 12.1182 19.7593C12.3814 19.557 12.5218 19.2319 12.4908 18.9019C12.4598 18.5719 12.2614 18.2796 11.9643 18.1296C11.9227 18.1083 7.83207 15.957 7.83207 12.9454C7.83207 11.9361 7.88627 11.1425 7.95788 10.5386C9.85756 12.1741 12.275 13.1525 14.8192 13.2783C14.8385 13.2793 14.8588 13.2802 14.8772 13.2793C15.4405 13.2628 15.8547 12.8496 15.8547 12.3115C15.8547 12.178 15.8276 12.0512 15.7782 11.9351C15.754 11.7899 15.7414 11.6438 15.7414 11.4977C15.7414 10.0606 16.9356 8.89154 18.4047 8.89154C19.1421 8.89154 19.8514 9.19347 20.3518 9.71896C20.5801 9.95702 20.914 10.0644 21.2363 10.0015C21.4559 9.95993 21.7095 9.92702 21.9756 9.89218C22.0705 9.8796 22.1663 9.86702 22.264 9.85347C21.5372 10.9606 21.275 11.3254 21.2624 11.3428Z" fill="white"/>
</svg>
